<svg xmlns="http://www.w3.org/2000/svg" viewBox="0 0 1024 1024" width="1024" height="1024" role="img" aria-label="Armada">
  <rect x="100.0" y="100.0" width="824" height="824" rx="185.4" ry="185.4" fill="#4A9EDB"/>
  <g fill="#FFFFFF"><path transform="translate(299.7099,483.6947) scale(3.145038)" d="M32 4 C 40 17, 50 35, 53 44 L36 46 C 34 34, 33 24, 31 18 C 28 25, 24 38, 19 52 L2 54 C 11 36, 24 15, 32 4 Z"/><path transform="translate(425.5115,357.8931) scale(3.145038)" d="M32 4 C 40 17, 50 35, 53 44 L36 46 C 34 34, 33 24, 31 18 C 28 25, 24 38, 19 52 L2 54 C 11 36, 24 15, 32 4 Z"/><path transform="translate(551.3130,452.2443) scale(3.145038)" d="M32 4 C 40 17, 50 35, 53 44 L36 46 C 34 34, 33 24, 31 18 C 28 25, 24 38, 19 52 L2 54 C 11 36, 24 15, 32 4 Z"/></g>
</svg>
